# xmcd CD database file
#
# Track frame offsets:
#	200
#	20092
#	38375
#	57232
#	116375
#	131827
#	152970
#	171472
#
# Disc length: 3134 seconds
#
# Revision: 0
# Processed by: cddbd v1.5.2PL0 Copyright (c) Steve Scherf et al.
# Submitted via: CDex 1.51
#
DISCID=680c3c08
DTITLE=Sudha Ranganathan - Kanakadhara and Mahishasura Mardhini
DYEAR=1998
DGENRE=Karnatic Devotional
TTITLE0=Ganesha Pancharatnam
TTITLE1=Swaminatha Astakam
TTITLE2=Lingastakam
TTITLE3=Kanakadhara Stothram
TTITLE4=Shiva Panchaksharam
TTITLE5=Madhurashtakam
TTITLE6=Lakshmi Ashtakam
TTITLE7=Mahishasura Mardhini
EXTD=YEAR: 1998
EXTT0=
EXTT1=
EXTT2=
EXTT3=
EXTT4=
EXTT5=
EXTT6=
EXTT7=
PLAYORDER=
